<?xml version="1.0" encoding="utf-8"?>
<!-- Generator: Adobe Illustrator 15.0.0, SVG Export Plug-In . SVG Version: 6.00 Build 0)  -->
<!DOCTYPE svg PUBLIC "-//W3C//DTD SVG 1.1//EN" "http://www.w3.org/Graphics/SVG/1.1/DTD/svg11.dtd">
<svg version="1.1" id="expand_more_black_32dp" xmlns="http://www.w3.org/2000/svg" xmlns:xlink="http://www.w3.org/1999/xlink"
	 x="0px" y="0px" width="32px" height="32px" viewBox="0 0 32 32" enable-background="new 0 0 32 32" xml:space="preserve">
<path id="Path_264" fill="#2886A2" d="M21.178,12.383L16,17.561l-5.177-5.178c-0.51-0.529-1.353-0.544-1.882-0.034
	c-0.529,0.51-0.544,1.353-0.035,1.882c0.011,0.012,0.023,0.023,0.035,0.035l6.125,6.125c0.519,0.52,1.36,0.52,1.879,0.002
	c0.001-0.001,0.002-0.002,0.003-0.002l6.125-6.125c0.52-0.519,0.521-1.36,0.003-1.879c-0.002-0.001-0.002-0.002-0.003-0.003
	c-0.528-0.517-1.372-0.517-1.9,0H21.178z"/>
</svg>
