<svg id="line" xmlns="http://www.w3.org/2000/svg" width="30.679" height="29.231" viewBox="0 0 30.679 29.231">
  <path id="path7964" d="M1725.6,720.263c0-6.864-6.881-12.448-15.339-12.448s-15.339,5.584-15.339,12.448c0,6.153,5.457,11.306,12.829,12.281.5.107,1.179.329,1.351.756a3.156,3.156,0,0,1,.05,1.387s-.18,1.082-.219,1.313c-.067.388-.308,1.517,1.329.826s8.834-5.2,12.052-8.905h0a11.075,11.075,0,0,0,3.288-7.659" transform="translate(-1694.919 -707.815)" fill="#28d04e"/>
  <path id="path7968" d="M1713.973,722.7H1712.9a.3.3,0,0,0-.3.3v6.684a.3.3,0,0,0,.3.3h1.075a.3.3,0,0,0,.3-.3V723a.3.3,0,0,0-.3-.3" transform="translate(-1701.75 -713.566)" fill="#fff"/>
  <path id="path7972" d="M1723.092,722.7h-1.075a.3.3,0,0,0-.3.3v3.971l-3.063-4.137a.366.366,0,0,0-.023-.03l0,0-.019-.018-.005-.006-.016-.013-.007-.006-.016-.011-.009,0-.016-.009-.01,0-.017-.007-.01,0-.018-.005-.01,0-.017,0h-.013l-.016,0h-1.1a.3.3,0,0,0-.3.3v6.684a.3.3,0,0,0,.3.3h1.075a.3.3,0,0,0,.3-.3v-3.97l3.067,4.142a.3.3,0,0,0,.075.074l0,0,.018.011.009,0,.014.007.015.006.009,0,.02.007h0a.286.286,0,0,0,.077.01h1.075a.3.3,0,0,0,.3-.3V723a.3.3,0,0,0-.3-.3" transform="translate(-1703.464 -713.566)" fill="#fff"/>
  <path id="path7976" d="M1707.717,728.3h-2.924V723a.3.3,0,0,0-.3-.3h-1.076a.3.3,0,0,0-.3.3v6.683h0a.3.3,0,0,0,.083.206l0,0,0,0a.3.3,0,0,0,.206.083h4.3a.3.3,0,0,0,.3-.3V728.6a.3.3,0,0,0-.3-.3" transform="translate(-1698.088 -713.566)" fill="#fff"/>
  <path id="path7980" d="M1733.7,724.37a.3.3,0,0,0,.3-.3V723a.3.3,0,0,0-.3-.3h-4.3a.3.3,0,0,0-.207.084l0,0-.005.006a.3.3,0,0,0-.083.206h0v6.682h0a.3.3,0,0,0,.083.206l0,0,0,0a.3.3,0,0,0,.206.083h4.3a.3.3,0,0,0,.3-.3V728.6a.3.3,0,0,0-.3-.3h-2.923v-1.13h2.923a.3.3,0,0,0,.3-.3V725.8a.3.3,0,0,0-.3-.3h-2.923v-1.13Z" transform="translate(-1708.128 -713.566)" fill="#fff"/>
</svg>
