<?xml version="1.0" encoding="utf-8"?>
<!-- Generator: Adobe Illustrator 15.0.0, SVG Export Plug-In . SVG Version: 6.00 Build 0)  -->
<!DOCTYPE svg PUBLIC "-//W3C//DTD SVG 1.1//EN" "http://www.w3.org/Graphics/SVG/1.1/DTD/svg11.dtd">
<svg version="1.1" id="navigate_next" xmlns="http://www.w3.org/2000/svg" xmlns:xlink="http://www.w3.org/1999/xlink" x="0px"
	 y="0px" width="45px" height="45px" viewBox="0 0 45 45" enable-background="new 0 0 45 45" xml:space="preserve">
<path id="Path_144" fill="none" d="M0,0h45v45H0V0z"/>
<path id="Path_145" fill="#FFFFFF" d="M14.039,27.639c0.666,0.667,1.746,0.669,2.413,0.004c0.001-0.001,0.002-0.003,0.003-0.004
	l6.649-6.649l6.647,6.649c0.668,0.667,1.75,0.667,2.416,0c0.668-0.667,0.668-1.749,0-2.416l-7.864-7.865
	c-0.665-0.667-1.746-0.669-2.413-0.003c-0.001,0.001-0.002,0.002-0.003,0.003l-7.868,7.865
	C13.364,25.898,13.373,26.975,14.039,27.639z"/>
</svg>
