<?xml version="1.0" encoding="utf-8"?>
<!-- Generator: Adobe Illustrator 15.0.0, SVG Export Plug-In . SVG Version: 6.00 Build 0)  -->
<!DOCTYPE svg PUBLIC "-//W3C//DTD SVG 1.1//EN" "http://www.w3.org/Graphics/SVG/1.1/DTD/svg11.dtd">
<svg version="1.1" id="navigate_next" xmlns="http://www.w3.org/2000/svg" xmlns:xlink="http://www.w3.org/1999/xlink" x="0px"
	 y="0px" width="45px" height="45px" viewBox="0 0 45 45" enable-background="new 0 0 45 45" xml:space="preserve">
<path id="Path_144" fill="none" d="M0,0h45v45H0V0z"/>
<path id="Path_145" fill="#2886A2" d="M17.96,13.436c-0.667,0.666-0.668,1.746-0.003,2.413c0.001,0.001,0.002,0.002,0.003,0.003
	l6.649,6.649l-6.649,6.647c-0.667,0.668-0.667,1.75,0,2.416c0.667,0.668,1.749,0.668,2.416,0l7.865-7.864
	c0.667-0.665,0.669-1.746,0.003-2.413c-0.001-0.001-0.002-0.002-0.003-0.003l-7.865-7.868C19.7,12.762,18.625,12.771,17.96,13.436z"
	/>
</svg>
