<?xml version="1.0" encoding="utf-8"?>
<!-- Generator: Adobe Illustrator 15.0.0, SVG Export Plug-In . SVG Version: 6.00 Build 0)  -->
<!DOCTYPE svg PUBLIC "-//W3C//DTD SVG 1.1//EN" "http://www.w3.org/Graphics/SVG/1.1/DTD/svg11.dtd">
<svg version="1.1" id="Capa_1" xmlns="http://www.w3.org/2000/svg" xmlns:xlink="http://www.w3.org/1999/xlink" x="0px" y="0px"
	 width="512px" height="512px" viewBox="0 0 512 512" enable-background="new 0 0 512 512" xml:space="preserve">
<g>
	<g>
		<path fill="#FFFFFF" d="M137.003,379.139c-19.367-17.439-33.338-38.349-42.492-60.799
			c-24.28-59.546-12.911-130.366,34.495-179.217l43.745,43.745c2.409,2.409,6.745,0.674,7.323-2.891l23.896-156.382
			c0.385-2.602-1.832-4.817-4.433-4.432L43.058,43.058c-3.565,0.578-5.3,4.914-2.891,7.323l43.841,43.841
			c-72.361,74-84.695,184.999-37.193,271.717c14.26,26.111,34.014,50.007,59.162,70.049c42.781,34.013,95.389,50.296,147.613,49.236
			l9.829-64.268C218.421,424.812,172.172,410.936,137.003,379.139z"/>
		<path fill="#FFFFFF" d="M427.99,417.777c72.362-74,84.695-184.999,37.193-271.717c-14.261-26.112-34.013-50.007-59.161-70.049
			c-42.78-34.013-95.39-50.296-147.613-49.236l-9.828,64.268c44.9-3.854,91.246,10.021,126.416,41.818
			c19.367,17.44,33.338,38.349,42.491,60.799c24.281,59.546,12.912,130.367-34.494,179.217l-43.745-43.744
			c-2.408-2.409-6.744-0.675-7.322,2.89l-23.896,156.383c-0.386,2.602,1.831,4.818,4.432,4.433l156.479-23.896
			c3.564-0.577,5.203-4.914,2.891-7.322L427.99,417.777z"/>
	</g>
</g>
</svg>
