<?xml version="1.0" encoding="utf-8"?>
<!-- Generator: Adobe Illustrator 22.0.1, SVG Export Plug-In . SVG Version: 6.00 Build 0)  -->
<svg version="1.1" id="圖層_1" xmlns="http://www.w3.org/2000/svg" xmlns:xlink="http://www.w3.org/1999/xlink" x="0px" y="0px"
	 viewBox="0 0 30 30" style="enable-background:new 0 0 30 30;" xml:space="preserve">
<style type="text/css">
	.st0{fill:none;stroke:#FFFFFF;stroke-width:2;stroke-miterlimit:10;}
	.st1{fill:#FFFFFF;}
</style>
<g id="XMLID_19_">
	<circle id="XMLID_6_" class="st0" cx="12.3" cy="9.6" r="8.4"/>
	<path id="XMLID_17_" class="st1" d="M23.2,20.3L22.4,21c-0.3,0.3-0.7,0.3-1,0l-3.8-3.8c-0.3-0.3-0.3-0.7,0-1l0.8-0.8
		c0.3-0.3,0.7-0.3,1,0l3.8,3.8C23.4,19.6,23.4,20,23.2,20.3z"/>
	<path id="XMLID_1_" class="st1" d="M24.9,22l-0.8,0.8c-0.3,0.3-0.7,0.3-1,0L19.4,19c-0.3-0.3-0.3-0.7,0-1l0.8-0.8
		c0.3-0.3,0.7-0.3,1,0l3.8,3.8C25.2,21.4,25.2,21.8,24.9,22z"/>
</g>
</svg>
