<svg xmlns="http://www.w3.org/2000/svg" xmlns:xlink="http://www.w3.org/1999/xlink" width="20" height="20" viewBox="0 0 20 20">
  <defs>
    <clipPath id="clip-path">
      <rect id="Rectangle_4314" data-name="Rectangle 4314" width="11.769" height="12.216" transform="translate(0 0)" fill="none"/>
    </clipPath>
  </defs>
  <g id="search" transform="translate(-207 -13)">
    <circle id="Ellipse_24" data-name="Ellipse 24" cx="10" cy="10" r="10" transform="translate(207 13)" fill="#2886a1"/>
    <g id="Group_2731" data-name="Group 2731" transform="translate(211 17)">
      <g id="Group_2730" data-name="Group 2730" clip-path="url(#clip-path)">
        <path id="Path_99005" data-name="Path 99005" d="M4.894.658A4.236,4.236,0,1,1,.658,4.894,4.236,4.236,0,0,1,4.894.658Z" fill="none" stroke="#fff" stroke-width="1.316"/>
        <path id="Path_99006" data-name="Path 99006" d="M11.578,11.42l-.605.6a.148.148,0,0,1-.237,0L7.289,8.552a.148.148,0,0,1,0-.237l.605-.6a.148.148,0,0,1,.237,0l3.447,3.447a.176.176,0,0,1,0,.263" fill="#fff"/>
        <path id="Path_99007" data-name="Path 99007" d="M11.578,11.42l-.605.6a.148.148,0,0,1-.237,0L7.289,8.552a.148.148,0,0,1,0-.237l.605-.6a.148.148,0,0,1,.237,0l3.447,3.447A.176.176,0,0,1,11.578,11.42Z" fill="none" stroke="#fff" stroke-width="0.263"/>
      </g>
    </g>
  </g>
</svg>
