<?xml version="1.0" encoding="utf-8"?>
<!-- Generator: Adobe Illustrator 15.0.0, SVG Export Plug-In . SVG Version: 6.00 Build 0)  -->
<!DOCTYPE svg PUBLIC "-//W3C//DTD SVG 1.1//EN" "http://www.w3.org/Graphics/SVG/1.1/DTD/svg11.dtd">
<svg version="1.1" id="圖層_1" xmlns="http://www.w3.org/2000/svg" xmlns:xlink="http://www.w3.org/1999/xlink" x="0px" y="0px"
	 width="89px" height="47px" viewBox="0 0 89 47" enable-background="new 0 0 89 47" xml:space="preserve">
<g id="TVBS_Logo_1_" transform="translate(0 -0.193)">
	<g>
		<defs>
			<rect id="SVGID_1_" y="0.929" width="89" height="47"/>
		</defs>
		<clipPath id="SVGID_2_">
			<use xlink:href="#SVGID_1_"  overflow="visible"/>
		</clipPath>
		<g id="Group_2144_1_" transform="translate(0 0.193)" clip-path="url(#SVGID_2_)">
			<path id="Path_98851_1_" fill="#FFFFFF" d="M55.37,2.167c0.2-1.058,1.22-1.754,2.278-1.554c0.788,0.148,1.404,0.766,1.554,1.554
				c-0.2,1.058-1.221,1.753-2.278,1.554C56.135,3.571,55.52,2.955,55.37,2.167"/>
			<path id="Path_98852_1_" fill="#FFFFFF" d="M60.693,2.167c0.202-1.059,1.225-1.753,2.282-1.552
				c0.786,0.15,1.401,0.766,1.552,1.552c-0.202,1.058-1.224,1.753-2.282,1.552C61.459,3.568,60.844,2.953,60.693,2.167"/>
			<path id="Path_98853_1_" fill="#FFFFFF" d="M66.016,2.167c0.202-1.059,1.224-1.753,2.282-1.552
				c0.786,0.15,1.401,0.766,1.552,1.552c-0.202,1.058-1.225,1.753-2.282,1.552C66.781,3.568,66.166,2.953,66.016,2.167"/>
			<path id="Path_98854_1_" fill="#FFFFFF" d="M71.342,2.167c0.2-1.058,1.221-1.754,2.279-1.554
				c0.787,0.148,1.404,0.766,1.553,1.554c-0.2,1.058-1.221,1.753-2.278,1.554C72.107,3.571,71.491,2.955,71.342,2.167"/>
			<path id="Path_98855_1_" fill="#FFFFFF" d="M58.883,6.891c0.2-1.059,1.221-1.754,2.279-1.553
				c0.787,0.148,1.404,0.766,1.553,1.553c-0.2,1.059-1.221,1.754-2.278,1.554C59.648,8.295,59.032,7.679,58.883,6.891"/>
			<path id="Path_98856_1_" fill="#FFFFFF" d="M64.207,6.891c0.201-1.059,1.223-1.753,2.281-1.551
				c0.787,0.149,1.402,0.765,1.552,1.551c-0.202,1.059-1.224,1.753-2.282,1.551C64.972,8.292,64.357,7.678,64.207,6.891"/>
			<path id="Path_98857_1_" fill="#FFFFFF" d="M69.531,6.891c0.201-1.059,1.223-1.753,2.281-1.551
				c0.787,0.149,1.402,0.765,1.551,1.551c-0.201,1.059-1.223,1.753-2.281,1.551C70.296,8.292,69.681,7.678,69.531,6.891"/>
			<path id="Path_98858_1_" fill="#FFFFFF" d="M74.855,6.891c0.199-1.059,1.22-1.754,2.278-1.553
				c0.788,0.148,1.404,0.766,1.554,1.553c-0.201,1.059-1.221,1.754-2.279,1.554C75.621,8.295,75.004,7.679,74.855,6.891"/>
			<path id="Path_98859_1_" fill="#FFFFFF" d="M62.396,11.613c0.201-1.058,1.221-1.754,2.279-1.553
				c0.787,0.148,1.404,0.766,1.553,1.553c-0.199,1.059-1.22,1.754-2.277,1.555C63.162,13.018,62.546,12.402,62.396,11.613"/>
			<path id="Path_98860_1_" fill="#FFFFFF" d="M67.721,11.613c0.202-1.059,1.224-1.752,2.282-1.551
				c0.786,0.15,1.401,0.766,1.552,1.551c-0.203,1.059-1.225,1.754-2.282,1.552C68.486,13.016,67.871,12.4,67.721,11.613"/>
			<path id="Path_98861_1_" fill="#FFFFFF" d="M73.048,11.613c0.204-1.059,1.227-1.752,2.285-1.549
				c0.784,0.15,1.398,0.765,1.549,1.549c-0.203,1.059-1.226,1.753-2.284,1.549C73.813,13.012,73.199,12.398,73.048,11.613"/>
			<path id="Path_98862_1_" fill="#FFFFFF" d="M78.368,11.613c0.202-1.059,1.224-1.752,2.282-1.551
				c0.785,0.15,1.4,0.766,1.551,1.551c-0.201,1.059-1.224,1.754-2.281,1.552C79.133,13.016,78.518,12.4,78.368,11.613"/>
			<path id="Path_98863_1_" fill="#FFFFFF" d="M71.234,16.33c0.199-1.058,1.221-1.753,2.278-1.553
				c0.788,0.148,1.404,0.766,1.554,1.553c-0.201,1.059-1.221,1.754-2.279,1.555C72,17.735,71.383,17.119,71.234,16.33"/>
			<path id="Path_98864_1_" fill="#FFFFFF" d="M76.559,16.33c0.201-1.058,1.223-1.752,2.281-1.551
				c0.786,0.15,1.401,0.766,1.551,1.551c-0.201,1.059-1.223,1.754-2.281,1.553C77.322,17.732,76.708,17.117,76.559,16.33"/>
			<path id="Path_98865_1_" fill="#FFFFFF" d="M81.882,16.33c0.202-1.058,1.224-1.752,2.282-1.551c0.786,0.15,1.4,0.766,1.551,1.551
				c-0.201,1.059-1.223,1.754-2.281,1.553C82.646,17.732,82.031,17.117,81.882,16.33"/>
			<path id="Path_98866_1_" fill="#FFFFFF" d="M69.425,21.059c0.2-1.059,1.221-1.754,2.278-1.553
				c0.789,0.148,1.404,0.766,1.554,1.553c-0.2,1.059-1.22,1.754-2.278,1.554C70.19,22.463,69.574,21.847,69.425,21.059"/>
			<path id="Path_98867_1_" fill="#FFFFFF" d="M74.748,21.059c0.2-1.059,1.221-1.754,2.278-1.553
				c0.788,0.148,1.404,0.766,1.554,1.553c-0.2,1.059-1.221,1.754-2.279,1.554C75.514,22.463,74.896,21.847,74.748,21.059"/>
			<path id="Path_98868_1_" fill="#FFFFFF" d="M80.068,21.059c0.202-1.059,1.225-1.753,2.282-1.551
				c0.786,0.15,1.401,0.765,1.552,1.551c-0.202,1.059-1.224,1.754-2.282,1.551C80.834,22.46,80.219,21.846,80.068,21.059"/>
			<path id="Path_98869_1_" fill="#FFFFFF" d="M85.396,21.059c0.201-1.059,1.223-1.753,2.281-1.551
				c0.787,0.15,1.401,0.765,1.551,1.551c-0.201,1.059-1.223,1.754-2.281,1.551C86.16,22.46,85.546,21.846,85.396,21.059"/>
			<path id="Path_98870_1_" fill="#FFFFFF" d="M55.37,39.949c0.2,1.059,1.22,1.754,2.278,1.555c0.788-0.15,1.404-0.766,1.554-1.555
				c-0.2-1.059-1.221-1.754-2.278-1.553C56.135,38.545,55.52,39.162,55.37,39.949"/>
			<path id="Path_98871_1_" fill="#FFFFFF" d="M60.693,39.949c0.202,1.059,1.225,1.754,2.282,1.551
				c0.786-0.148,1.401-0.764,1.552-1.551c-0.202-1.059-1.224-1.752-2.282-1.551C61.459,38.549,60.844,39.164,60.693,39.949"/>
			<path id="Path_98872_1_" fill="#FFFFFF" d="M66.016,39.949c0.202,1.059,1.224,1.754,2.282,1.551
				c0.786-0.148,1.401-0.764,1.552-1.551c-0.202-1.059-1.225-1.752-2.282-1.551C66.781,38.549,66.166,39.164,66.016,39.949"/>
			<path id="Path_98873_1_" fill="#FFFFFF" d="M71.342,39.949c0.2,1.059,1.221,1.754,2.279,1.555
				c0.787-0.15,1.404-0.766,1.553-1.555c-0.2-1.059-1.221-1.754-2.278-1.553C72.107,38.545,71.491,39.162,71.342,39.949"/>
			<path id="Path_98874_1_" fill="#FFFFFF" d="M58.883,35.227c0.2,1.059,1.221,1.754,2.279,1.553
				c0.787-0.148,1.404-0.766,1.553-1.553c-0.2-1.059-1.221-1.754-2.278-1.553C59.648,33.822,59.032,34.439,58.883,35.227"/>
			<path id="Path_98875_1_" fill="#FFFFFF" d="M64.207,35.227c0.201,1.059,1.223,1.754,2.281,1.551
				c0.787-0.148,1.402-0.764,1.552-1.551c-0.202-1.059-1.224-1.752-2.282-1.551C64.972,33.826,64.357,34.439,64.207,35.227"/>
			<path id="Path_98876_1_" fill="#FFFFFF" d="M69.531,35.227c0.201,1.059,1.223,1.754,2.281,1.551
				c0.787-0.148,1.402-0.764,1.551-1.551c-0.201-1.059-1.223-1.752-2.281-1.551C70.296,33.826,69.681,34.439,69.531,35.227"/>
			<path id="Path_98877_1_" fill="#FFFFFF" d="M74.855,35.227c0.199,1.059,1.22,1.754,2.278,1.553
				c0.788-0.148,1.404-0.766,1.554-1.553c-0.201-1.059-1.221-1.754-2.279-1.553C75.621,33.822,75.004,34.439,74.855,35.227"/>
			<path id="Path_98878_1_" fill="#FFFFFF" d="M67.721,30.504c0.202,1.059,1.224,1.752,2.282,1.551
				c0.786-0.15,1.401-0.766,1.552-1.551c-0.203-1.059-1.225-1.754-2.282-1.551C68.486,29.102,67.871,29.717,67.721,30.504"/>
			<path id="Path_98879_1_" fill="#FFFFFF" d="M73.048,30.504c0.204,1.059,1.227,1.752,2.285,1.549
				c0.784-0.15,1.398-0.764,1.549-1.549c-0.203-1.059-1.226-1.752-2.284-1.549C73.813,29.105,73.199,29.719,73.048,30.504"/>
			<path id="Path_98880_1_" fill="#FFFFFF" d="M78.368,30.504c0.202,1.059,1.224,1.752,2.282,1.551
				c0.785-0.15,1.4-0.766,1.551-1.551C82,29.445,80.978,28.75,79.92,28.953C79.133,29.102,78.518,29.717,78.368,30.504"/>
			<path id="Path_98881_1_" fill="#FFFFFF" d="M71.234,25.779c0.199,1.059,1.221,1.754,2.278,1.555
				c0.788-0.15,1.404-0.766,1.554-1.555c-0.201-1.058-1.221-1.754-2.279-1.553C72,24.375,71.383,24.992,71.234,25.779"/>
			<path id="Path_98882_1_" fill="#FFFFFF" d="M76.559,25.779c0.201,1.059,1.223,1.754,2.281,1.551
				c0.786-0.148,1.401-0.764,1.551-1.551c-0.201-1.059-1.223-1.752-2.281-1.551C77.322,24.379,76.708,24.994,76.559,25.779"/>
			<path id="Path_98883_1_" fill="#FFFFFF" d="M81.882,25.779c0.202,1.059,1.224,1.754,2.282,1.551
				c0.786-0.148,1.4-0.764,1.551-1.551c-0.201-1.059-1.223-1.752-2.281-1.551C82.646,24.379,82.031,24.994,81.882,25.779"/>
			<path id="Path_98884_1_" fill="#FFFFFF" d="M69.509,15.189h-0.062l0,0h-8.73c-0.24,0.012-0.479,0.035-0.716,0.071
				c-2.73,0.395-4.89,2.515-5.334,5.237c-0.05,0.423-0.042,0.852,0.026,1.271c0.242,1.957,1.891,3.434,3.861,3.461
				c0.199,0.02,0.4,0.027,0.6,0.025l0,0h3.275l0.006,0.006c0.11-0.006,0.221-0.004,0.33,0.008c0.793,0.01,1.457,0.604,1.553,1.391
				c0.028,0.17,0.032,0.342,0.012,0.512c-0.258,1.193-1.282,2.064-2.5,2.127l-0.253,0.02h-8.511l-0.683,2.156l-0.006,0.016
				l-0.136,0.434l-0.063,0.199l0,0l-0.025,0.09c-0.014,0.027-0.002,0.061,0.026,0.074c0.009,0.004,0.019,0.006,0.028,0.004h9.716
				c3.011-0.133,5.525-2.342,6.046-5.311c0.049-0.422,0.041-0.85-0.027-1.271c-0.24-1.956-1.891-3.434-3.861-3.461
				c-0.226-0.021-0.453-0.029-0.68-0.024h-3.199l-0.008-0.007c-0.109,0.007-0.22,0.004-0.329-0.008
				c-0.793-0.01-1.456-0.604-1.554-1.391c-0.026-0.17-0.03-0.341-0.011-0.511c0.188-1.153,1.165-2.012,2.333-2.051
				c0.083,0,0.165-0.013,0.252-0.019h7.729l0.884-2.801l0.015-0.05l0.03-0.092l0.011-0.032c0.012-0.027,0-0.061-0.028-0.074
				c-0.009-0.004-0.019-0.006-0.027-0.004"/>
			<path id="Path_98885_1_" fill="#FFFFFF" d="M13.768,18.176h-0.328c-0.051,0.004-0.102-0.011-0.143-0.041
				c-0.031-0.037-0.037-0.09-0.014-0.133v-0.006l1.017-1.815c0.091-0.175,0.208-0.335,0.349-0.474
				c0.381-0.376,0.877-0.612,1.408-0.67l0,0c0.641-0.07,1.287-0.102,1.932-0.092l0,0h9.941l1.045-3.362l0.075-0.24
				c0.017-0.026,0.009-0.062-0.019-0.079c-0.01-0.006-0.02-0.008-0.031-0.008H9.657l-0.011,0.006c-1.336-0.02-2.672,0.045-4,0.189
				v0.01c-1.1,0.119-2.127,0.607-2.914,1.386c-0.289,0.286-0.533,0.618-0.719,0.979l-1.941,3.601l-0.012,0.026
				c-0.107,0.205-0.081,0.455,0.068,0.631c0.193,0.146,0.434,0.219,0.676,0.199H9.27L5.789,29.5l-0.008,0.039
				c-0.191,0.719,0.035,1.482,0.587,1.98c0.509,0.502,1.196,0.781,1.911,0.777h6.484l4.381-14.121H13.768z"/>
			<path id="Path_98886_1_" fill="#FFFFFF" d="M50.605,23.806c-0.166-0.125-0.342-0.235-0.527-0.329
				c-0.1-0.053-0.2-0.101-0.301-0.146c1.25-0.691,2.155-1.871,2.5-3.256c0.096-0.459,0.117-0.93,0.062-1.396
				c-0.405-2.007-2.165-3.452-4.212-3.461c-0.22-0.021-0.682-0.026-0.682-0.026h-8.684c-1.125,0-1.254-0.049-1.878,0.617
				c-0.137,0.145-0.237,0.27-0.237,0.27L23.788,29.539c-0.047,0.041-0.104,0.07-0.165,0.082c-0.102,0.002-0.186-0.078-0.189-0.178
				l3.48-11.269h-3.708l-4.12,13.315v0.006l-0.225,0.723c-0.012,0.029,0.001,0.063,0.029,0.076c0.009,0.004,0.018,0.006,0.027,0.004
				h7.21L38.787,18.23h8.039c0,0,0.369,0,0.477,0.012c0.793,0.012,1.457,0.605,1.553,1.393c0.027,0.169,0.031,0.34,0.012,0.51
				c-0.131,1.115-1.674,2.068-2.848,2.129c-0.084,0-0.168,0.012-0.254,0.019H43.59l-0.938,2.97h3.654l0.006,0.006
				c0.111-0.006,0.222-0.004,0.332,0.008c0.777,0.016,1.418,0.615,1.481,1.391c0.026,0.17,0.03,0.342,0.011,0.512
				c-0.256,1.193-1.281,2.066-2.5,2.129c-0.082,0-0.164,0.012-0.252,0.02h-5.271l2.927-9.42h-4.034l-3.8,12.234l-0.024,0.074
				c-0.012,0.029,0.002,0.063,0.031,0.074c0.008,0.004,0.017,0.006,0.025,0.004h10.568c0.034,0,0.728,0,0.858-0.01
				c2.972-0.139,5.485-2.355,5.61-4.949c0.02-0.398-0.021-0.799-0.119-1.188C51.945,25.201,51.394,24.369,50.605,23.806"/>
			<path id="Path_98887_1_" fill="#FFFFFF" d="M10.887,43.129l-1.248,0.328c0.32,0.85,0.592,1.719,0.809,2.602l1.275-0.486
				c-0.237-0.83-0.518-1.646-0.841-2.447"/>
			<path id="Path_98888_1_" fill="#FFFFFF" d="M10.887,43.129l-1.248,0.328c0.32,0.85,0.592,1.719,0.809,2.602l1.275-0.486
				c-0.237-0.83-0.518-1.646-0.841-2.447"/>
			<path id="Path_98889_1_" fill="#FFFFFF" d="M6.195,43.215c-0.245,1.162-0.685,2.275-1.299,3.291l1.258,0.789
				c0.65-1.189,1.123-2.469,1.402-3.795L6.195,43.215z"/>
			<path id="Path_98890_1_" fill="#FFFFFF" d="M6.195,43.215c-0.245,1.162-0.685,2.275-1.299,3.291l1.258,0.789
				c0.65-1.189,1.123-2.469,1.402-3.795L6.195,43.215z"/>
			<path id="Path_98891_1_" fill="#FFFFFF" d="M14.043,36.604c1.387-0.066,2.758-0.313,4.082-0.73l-0.736-1.34
				c-1.539,0.566-3.166,0.855-4.807,0.857V41.6c0.037,1.736-0.42,3.447-1.318,4.934l1.084,1.131c1.147-1.814,1.738-3.924,1.7-6.068
				v-1.357h1.562v7.455h1.486v-7.455h1.33V38.82h-4.383V36.604z"/>
			<path id="Path_98892_1_" fill="#FFFFFF" d="M14.043,36.604c1.387-0.066,2.758-0.313,4.082-0.73l-0.736-1.34
				c-1.539,0.566-3.166,0.855-4.807,0.857V41.6c0.037,1.736-0.42,3.447-1.318,4.934l1.084,1.131c1.147-1.814,1.738-3.924,1.7-6.068
				v-1.357h1.562v7.455h1.486v-7.455h1.33V38.82h-4.383V36.604z"/>
			<path id="Path_98893_1_" fill="#FFFFFF" d="M11.784,41.301H9.41v-1.162h2.621v-1.359h-1.409c0.188-0.416,0.362-0.859,0.535-1.346
				l-1.347-0.473c-0.156,0.615-0.344,1.223-0.564,1.818h-1.27c-0.172-0.617-0.38-1.225-0.623-1.818l-1.33,0.5
				c0.239,0.42,0.442,0.861,0.607,1.316H5.154v1.359h2.75v1.164h-2.52v1.361h2.52v3.391c0,0.273-0.174,0.414-0.492,0.414
				c-0.201-0.008-0.401-0.041-0.594-0.1l0.332,1.375h0.754c1,0,1.5-0.443,1.5-1.33v-3.75h2.375L11.784,41.301z"/>
			<path id="Path_98894_1_" fill="#FFFFFF" d="M11.784,41.301H9.41v-1.162h2.621v-1.359h-1.409c0.188-0.416,0.362-0.859,0.535-1.346
				l-1.347-0.473c-0.156,0.615-0.344,1.223-0.564,1.818h-1.27c-0.172-0.617-0.38-1.225-0.623-1.818l-1.33,0.5
				c0.239,0.42,0.442,0.861,0.607,1.316H5.154v1.359h2.75v1.164h-2.52v1.361h2.52v3.391c0,0.273-0.174,0.414-0.492,0.414
				c-0.201-0.008-0.401-0.041-0.594-0.1l0.332,1.375h0.754c1,0,1.5-0.443,1.5-1.33v-3.75h2.375L11.784,41.301z"/>
			<path id="Path_98895_1_" fill="#FFFFFF" d="M11.945,35.531H9.309c-0.174-0.457-0.332-0.875-0.506-1.246l-1.564,0.258
				c0.211,0.316,0.4,0.646,0.566,0.988H5.298v1.373h6.647V35.531z"/>
			<path id="Path_98896_1_" fill="#FFFFFF" d="M11.945,35.531H9.309c-0.174-0.457-0.332-0.875-0.506-1.246l-1.564,0.258
				c0.211,0.316,0.4,0.646,0.566,0.988H5.298v1.373h6.647V35.531z"/>
			<path id="Path_98897_1_" fill="#FFFFFF" d="M30.793,44.488c-0.376,0.027-0.753,0.072-1.158,0.1v-3.477h1.273v-1.26h-7.817v1.26
				h1.042v3.807c-0.361,0-0.738,0.014-1.115,0.041l0.174,1.301c1.812-0.086,3.5-0.186,5.082-0.314v1.33h1.361v-1.441l1.158-0.117
				V44.488z M28.273,44.689c-0.867,0.057-1.799,0.1-2.779,0.156V44.23h2.777L28.273,44.689z M28.273,43.201h-2.778v-0.563h2.776
				L28.273,43.201z M28.273,41.641h-2.778v-0.529h2.776L28.273,41.641z"/>
			<path id="Path_98898_1_" fill="#FFFFFF" d="M30.793,44.488c-0.376,0.027-0.753,0.072-1.158,0.1v-3.477h1.273v-1.26h-7.817v1.26
				h1.042v3.807c-0.361,0-0.738,0.014-1.115,0.041l0.174,1.301c1.812-0.086,3.5-0.186,5.082-0.314v1.33h1.361v-1.441l1.158-0.117
				V44.488z M28.273,44.689c-0.867,0.057-1.799,0.1-2.779,0.156V44.23h2.777L28.273,44.689z M28.273,43.201h-2.778v-0.563h2.776
				L28.273,43.201z M28.273,41.641h-2.778v-0.529h2.776L28.273,41.641z"/>
			<path id="Path_98899_1_" fill="#FFFFFF" d="M27.535,39.279h4.227v6.525c0,0.344-0.173,0.529-0.49,0.529
				c-0.363,0-0.754-0.029-1.188-0.072l0.348,1.316c0.448,0.029,0.912,0.059,1.375,0.059c0.969,0,1.461-0.457,1.461-1.373V34.871
				h-5.732V39.279z M29.041,35.984h2.723v0.543h-2.723V35.984z M29.041,37.531h2.723v0.658h-2.723V37.531z"/>
			<path id="Path_98900_1_" fill="#FFFFFF" d="M27.535,39.279h4.227v6.525c0,0.344-0.173,0.529-0.49,0.529
				c-0.363,0-0.754-0.029-1.188-0.072l0.348,1.316c0.448,0.029,0.912,0.059,1.375,0.059c0.969,0,1.461-0.457,1.461-1.373V34.871
				h-5.732V39.279z M29.041,35.984h2.723v0.543h-2.723V35.984z M29.041,37.531h2.723v0.658h-2.723V37.531z"/>
			<path id="Path_98901_1_" fill="#FFFFFF" d="M26.549,34.871h-5.79v12.793h1.507v-8.4h4.283V34.871z M25.049,38.178h-2.783v-0.645
				h2.778L25.049,38.178z M25.049,36.531h-2.783v-0.572h2.778L25.049,36.531z"/>
			<path id="Path_98902_1_" fill="#FFFFFF" d="M26.549,34.871h-5.79v12.793h1.507v-8.4h4.283V34.871z M25.049,38.178h-2.783v-0.645
				h2.778L25.049,38.178z M25.049,36.531h-2.783v-0.572h2.778L25.049,36.531z"/>
			<path id="Path_98903_1_" fill="#FFFFFF" d="M37.566,39.666c-0.364,0.701-0.8,1.361-1.299,1.975
				c-0.176,0.176-0.389,0.307-0.623,0.387l0.363,1.23c1.09-0.131,2.166-0.359,3.213-0.686l0.117,0.615l1.114-0.273
				c-0.179-0.986-0.416-1.961-0.709-2.918l-1.071,0.344c0.115,0.371,0.217,0.771,0.319,1.199c-0.478,0.115-0.956,0.215-1.435,0.301
				c1.059-1.469,1.997-3.02,2.805-4.639l-1.299-0.486c-0.289,0.6-0.564,1.16-0.824,1.689l-1.072,0.172
				c0.719-1.176,1.324-2.418,1.811-3.707l-1.375-0.545c-0.364,1.289-0.829,2.549-1.391,3.764c-0.146,0.232-0.358,0.416-0.607,0.529
				l0.361,1.301c0.551-0.086,1.086-0.172,1.607-0.258"/>
			<path id="Path_98904_1_" fill="#FFFFFF" d="M37.566,39.666c-0.364,0.701-0.8,1.361-1.299,1.975
				c-0.176,0.176-0.389,0.307-0.623,0.387l0.363,1.23c1.09-0.131,2.166-0.359,3.213-0.686l0.117,0.615l1.114-0.273
				c-0.179-0.986-0.416-1.961-0.709-2.918l-1.071,0.344c0.115,0.371,0.217,0.771,0.319,1.199c-0.478,0.115-0.956,0.215-1.435,0.301
				c1.059-1.469,1.997-3.02,2.805-4.639l-1.299-0.486c-0.289,0.6-0.564,1.16-0.824,1.689l-1.072,0.172
				c0.719-1.176,1.324-2.418,1.811-3.707l-1.375-0.545c-0.364,1.289-0.829,2.549-1.391,3.764c-0.146,0.232-0.358,0.416-0.607,0.529
				l0.361,1.301c0.551-0.086,1.086-0.172,1.607-0.258"/>
			<path id="Path_98905_1_" fill="#FFFFFF" d="M46.572,45.117V44h-2.4v-1.574h2.664v-1.258h-1.52
				c-0.115-0.473-0.217-0.9-0.332-1.273l-1.26,0.199c0.151,0.35,0.281,0.709,0.389,1.074h-1.74v1.258h0.607v2.691H46.572z"/>
			<path id="Path_98906_1_" fill="#FFFFFF" d="M46.572,45.117V44h-2.4v-1.574h2.664v-1.258h-1.52
				c-0.115-0.473-0.217-0.9-0.332-1.273l-1.26,0.199c0.151,0.35,0.281,0.709,0.389,1.074h-1.74v1.258h0.607v2.691H46.572z"/>
			<path id="Path_98907_1_" fill="#FFFFFF" d="M40.634,45.588c-0.205-0.758-0.456-1.504-0.753-2.232l-0.955,0.33
				c0.276,0.83,0.504,1.676,0.682,2.531l1.027-0.471v1.816h1.372V36.217h5.169v9.473c0,0.328-0.131,0.5-0.377,0.5l-1.766-0.045
				l0.376,1.316h1.823c0.885,0,1.332-0.486,1.332-1.459v-11.1h-7.931V45.588z"/>
			<path id="Path_98908_1_" fill="#FFFFFF" d="M40.634,45.588c-0.205-0.758-0.456-1.504-0.753-2.232l-0.955,0.33
				c0.276,0.83,0.504,1.676,0.682,2.531l1.027-0.471v1.816h1.372V36.217h5.169v9.473c0,0.328-0.131,0.5-0.377,0.5l-1.766-0.045
				l0.376,1.316h1.823c0.885,0,1.332-0.486,1.332-1.459v-11.1h-7.931V45.588z"/>
			<path id="Path_98909_1_" fill="#FFFFFF" d="M37.464,43.988c0.159,0.857,0.29,1.844,0.392,2.961l1.199-0.271
				c-0.158-1.059-0.347-2.031-0.55-2.92L37.464,43.988z"/>
			<path id="Path_98910_1_" fill="#FFFFFF" d="M37.464,43.988c0.159,0.857,0.29,1.844,0.392,2.961l1.199-0.271
				c-0.158-1.059-0.347-2.031-0.55-2.92L37.464,43.988z"/>
			<path id="Path_98911_1_" fill="#FFFFFF" d="M35.51,47.121l1.2,0.373c0.267-1.152,0.422-2.326,0.463-3.506l-1.172-0.158
				c-0.038,1.111-0.203,2.217-0.493,3.291"/>
			<path id="Path_98912_1_" fill="#FFFFFF" d="M35.51,47.121l1.2,0.373c0.267-1.152,0.422-2.326,0.463-3.506l-1.172-0.158
				c-0.038,1.111-0.203,2.217-0.493,3.291"/>
			<path id="Path_98913_1_" fill="#FFFFFF" d="M42.286,39.766h4.618v-1.26H45.92c0.237-0.561,0.412-1.146,0.521-1.746l-1.217-0.172
				c-0.086,0.652-0.231,1.295-0.435,1.918h-1.129l0.694-0.314c-0.195-0.531-0.428-1.047-0.694-1.545l-1.042,0.355
				c0.261,0.482,0.483,0.984,0.666,1.5h-1L42.286,39.766z"/>
			<path id="Path_98914_1_" fill="#FFFFFF" d="M42.286,39.766h4.618v-1.26H45.92c0.237-0.561,0.412-1.146,0.521-1.746l-1.217-0.172
				c-0.086,0.652-0.231,1.295-0.435,1.918h-1.129l0.694-0.314c-0.195-0.531-0.428-1.047-0.694-1.545l-1.042,0.355
				c0.261,0.482,0.483,0.984,0.666,1.5h-1L42.286,39.766z"/>
		</g>
	</g>
</g>
</svg>
